HIERARCHY
ROOT Hips
{
 OFFSET 0.000000 0.000000 0.000000
 CHANNELS 6 Xposition Yposition Zposition Yrotation Xrotation Zrotation
 JOINT Chest
 {
  OFFSET 0.000000 9.581000 -0.001100
  CHANNELS 3 Yrotation Xrotation Zrotation
  JOINT Chest2
  {
   OFFSET 0.000000 9.561100 0.002200
   CHANNELS 3 Yrotation Xrotation Zrotation
   JOINT Chest3
   {
    OFFSET 0.000000 9.521100 0.000000
    CHANNELS 3 Yrotation Xrotation Zrotation
    JOINT Chest4
    {
     OFFSET 0.000000 9.511400 0.000000
     CHANNELS 3 Yrotation Xrotation Zrotation
     JOINT Neck
     {
      OFFSET 0.000000 14.375100 0.000000
      CHANNELS 3 Yrotation Xrotation Zrotation
      JOINT Head
      {
       OFFSET 0.000000 8.901200 0.004600
       CHANNELS 3 Yrotation Xrotation Zrotation
       End Site
       {
        OFFSET 0.000000 16.962200 0.002400
       }
      }
     }
     JOINT RightCollar
     {
      OFFSET -2.920100 9.518800 0.000000
      CHANNELS 3 Yrotation Xrotation Zrotation
      JOINT RightShoulder
      {
       OFFSET -13.664500 0.000000 0.000000
       CHANNELS 3 Yrotation Xrotation Zrotation
       JOINT RightElbow
       {
        OFFSET 0.000000 -29.999200 0.000000
        CHANNELS 3 Yrotation Xrotation Zrotation
        JOINT RightWrist
        {
         OFFSET 0.000000 -24.253600 0.000000
         CHANNELS 3 Yrotation Xrotation Zrotation
         End Site
         {
          OFFSET 0.000000 -17.918900 0.000000
         }
        }
       }
      }
     }
     JOINT LeftCollar
     {
      OFFSET 2.920100 9.518800 0.000000
      CHANNELS 3 Yrotation Xrotation Zrotation
      JOINT LeftShoulder
      {
       OFFSET 13.664500 0.000000 0.000000
       CHANNELS 3 Yrotation Xrotation Zrotation
       JOINT LeftElbow
       {
        OFFSET 0.000000 -29.999200 0.000000
        CHANNELS 3 Yrotation Xrotation Zrotation
        JOINT LeftWrist
        {
         OFFSET 0.000000 -24.253600 0.000000
         CHANNELS 3 Yrotation Xrotation Zrotation
         End Site
         {
          OFFSET 0.000000 -17.918900 0.000000
         }
        }
       }
      }
     }
    }
   }
  }
 }
 JOINT RightHip
 {
  OFFSET -7.797300 0.005300 0.000500
  CHANNELS 3 Yrotation Xrotation Zrotation
  JOINT RightKnee
  {
   OFFSET 0.000000 -40.663400 -0.000500
   CHANNELS 3 Yrotation Xrotation Zrotation
   JOINT RightAnkle
   {
    OFFSET 0.000000 -39.523700 -0.000900
    CHANNELS 3 Yrotation Xrotation Zrotation
    JOINT RightToe
    {
     OFFSET 0.000000 -6.418000 14.485300
     CHANNELS 3 Yrotation Xrotation Zrotation
     End Site
     {
      OFFSET 0.000000 -1.465200 6.326400
     }
    }
   }
  }
 }
 JOINT LeftHip
 {
  OFFSET 7.797300 0.005300 0.000500
  CHANNELS 3 Yrotation Xrotation Zrotation
  JOINT LeftKnee
  {
   OFFSET 0.000000 -40.663400 -0.000500
   CHANNELS 3 Yrotation Xrotation Zrotation
   JOINT LeftAnkle
   {
    OFFSET 0.000000 -39.523700 -0.000900
    CHANNELS 3 Yrotation Xrotation Zrotation
    JOINT LeftToe
    {
     OFFSET 0.000000 -6.418000 14.485300
     CHANNELS 3 Yrotation Xrotation Zrotation
     End Site
     {
      OFFSET 0.000000 -1.465200 6.326400
     }
    }
   }
  }
 }
}
MOTION
Frames: 5
Frame Time: 0.008333
-23.213696 126.206285 58.372596 -174.471577 -23.855419 -1.289650 -0.627879 22.164212 0.336760 -0.088735 3.089244 0.060324 -0.157186 5.000368 0.080344 -0.575685 18.780567 0.225828 0.134636 12.522016 -0.063099 0.147559 -12.586859 -0.087936 -7.867175 -4.125466 -0.851157 -0.060761 -3.546735 -3.447050 114.275733 -70.438443 -86.830851 1.784790 7.027575 -35.863954 -2.895146 -5.129783 2.089053 -0.617815 -8.505608 6.074362 -94.729075 -74.900597 77.495726 -29.617467 11.642951 17.565559 -12.742719 -62.883714 8.864365 -34.946713 69.975714 -35.667152 21.593115 33.530669 9.907552 0.069787 0.011586 0.030926 -11.669801 -52.745954 -5.135135 13.751584 71.298208 5.442112 0.665136 7.334542 5.847304 -0.005342 0.001345 -0.002367
-23.210549 126.205780 58.369122 -174.475932 -23.836624 -1.301529 -0.629240 22.136130 0.337211 -0.085915 3.079931 0.060759 -0.156488 4.986200 0.077662 -0.569655 18.785937 0.226981 0.128963 12.449262 -0.056094 0.152709 -12.589187 -0.072190 -7.899335 -4.187593 -0.869458 -0.074301 -3.424135 -3.424037 114.321904 -70.537221 -86.844726 1.825280 6.887882 -36.026368 -2.911878 -5.261734 2.081962 -0.593532 -8.339910 6.103535 -94.748720 -74.904418 77.496732 -29.646019 11.643666 17.596340 -12.805028 -62.948289 8.874586 -35.058104 69.845171 -35.769198 22.005006 33.967303 10.280267 0.057438 0.030962 0.025462 -11.653239 -52.742574 -5.125189 13.743744 71.265346 5.439037 0.666746 7.347913 5.861378 -0.005067 0.001294 -0.002245
-23.208792 126.205910 58.364680 -174.475825 -23.825023 -1.309626 -0.638767 22.114316 0.331501 -0.096002 3.049982 0.047155 -0.143639 4.991804 0.085759 -0.574785 18.730672 0.210614 0.143399 12.436903 -0.028455 0.160406 -12.588178 -0.057587 -7.900006 -4.138820 -0.869516 -0.074624 -3.370015 -3.412452 114.334021 -70.574282 -86.843875 1.809867 6.776562 -36.186326 -2.903961 -5.280053 2.098912 -0.554305 -8.227577 6.129720 -94.732282 -74.895852 77.420016 -29.656747 11.639972 17.661320 -12.848950 -62.999926 8.841737 -35.190914 69.708532 -35.871440 22.465050 34.394797 10.654216 0.047590 0.043902 0.021101 -11.639419 -52.734948 -5.121729 13.796016 71.229147 5.490730 0.644447 7.366024 5.873866 -0.006484 0.000090 -0.002873
-23.208172 126.205963 58.360462 -174.481218 -23.812170 -1.309919 -0.648515 22.089444 0.320747 -0.087692 3.050952 0.050157 -0.162379 4.925751 0.069132 -0.562816 18.725773 0.212202 0.159387 12.437201 -0.008082 0.169132 -12.603269 -0.043091 -7.928134 -4.155383 -0.893210 -0.215042 -3.196353 -3.395797 114.646225 -70.636614 -86.998137 1.852286 6.662147 -36.337441 -2.888039 -5.281381 2.110450 -0.500124 -8.146415 6.157012 -94.596019 -74.895078 77.189479 -29.623142 11.606161 17.738701 -12.874674 -63.050314 8.785197 -35.344725 69.567339 -35.981178 22.896618 34.818291 11.032986 0.028988 0.046995 0.012854 -11.619249 -52.733709 -5.126720 13.810139 71.198736 5.509544 0.636888 7.382092 5.878520 -0.005770 -0.000050 -0.002557
-23.207711 126.205213 58.357763 -174.501277 -23.789109 -1.303087 -0.647178 22.053085 0.309003 -0.079521 3.051679 0.053506 -0.165994 4.907432 0.065960 -0.570261 18.669060 0.203596 0.178879 12.484019 0.005108 0.180564 -12.652907 -0.022057 -7.954814 -4.161329 -0.920181 -0.329549 -3.053017 -3.381764 114.839547 -70.688326 -87.056586 1.893552 6.562154 -36.470930 -2.869351 -5.277315 2.118735 -0.475172 -8.066407 6.163720 -94.590283 -74.907452 77.152497 -29.626474 11.594882 17.750238 -12.892297 -63.109952 8.728654 -35.511398 69.423483 -36.101486 23.336427 35.231239 11.423601 0.013103 0.045615 0.005811 -11.594755 -52.748431 -5.124764 13.805668 71.174910 5.508526 0.636608 7.398236 5.879940 -0.004723 -0.001342 -0.002093
